<svg width="44" height="49" viewBox="0 0 44 49" fill="none" xmlns="http://www.w3.org/2000/svg">
<path d="M32.1149 40.1476C31.9587 40.2303 31.9718 40.2565 32.1215 40.1804C32.1676 40.1616 32.2098 40.1344 32.2461 40.1003C32.2461 40.0728 32.2461 40.0728 32.1149 40.1476ZM32.4299 39.9769C32.3551 40.0386 32.3551 40.0386 32.4443 39.9979C32.4773 39.9825 32.5075 39.9617 32.5336 39.9363C32.5336 39.9008 32.5126 39.9087 32.4299 39.9769ZM32.6346 39.8536C32.5598 39.9153 32.5598 39.9153 32.6491 39.8746C32.6822 39.8588 32.7124 39.8375 32.7383 39.8116C32.7383 39.7788 32.7173 39.7853 32.6346 39.8536ZM32.842 39.7315C32.7672 39.7932 32.7672 39.7932 32.8538 39.7512C32.9024 39.7249 32.9431 39.6974 32.9431 39.6895C32.9431 39.6567 32.9221 39.6633 32.842 39.7315ZM33.1216 39.5464C32.9785 39.6423 32.9286 39.7039 33.0599 39.6357C33.1478 39.5819 33.2974 39.4637 33.2712 39.4637C33.2147 39.4847 33.1675 39.5202 33.1202 39.5464H33.1216ZM20.5705 0.779667C20.4747 0.786229 20.1873 0.81248 19.9353 0.83348C13.9662 1.37424 8.3817 4.58731 4.842 9.53684C2.88587 12.2515 1.61435 15.3984 1.13562 18.7101C0.966312 19.8651 0.945312 20.2064 0.945312 21.7722C0.945312 23.3367 0.966312 23.6727 1.13562 24.8278C2.27877 32.7174 7.89084 39.3404 15.4979 41.7948C16.8668 42.2319 18.3013 42.5337 19.9353 42.7188C20.5705 42.7871 23.3175 42.7871 23.9527 42.7188C26.7771 42.4038 29.1619 41.7069 31.5217 40.5033C31.8839 40.3195 31.9522 40.2709 31.9036 40.2303C30.7524 38.7085 29.611 37.1794 28.4794 35.643L25.1234 31.1108L20.9196 24.8829C19.5213 22.7976 18.1086 20.722 16.6817 18.6563C16.6673 18.6563 16.6489 21.4244 16.641 24.8002C16.6266 30.7131 16.6266 30.9533 16.5518 31.0898C16.48 31.2547 16.3515 31.3884 16.1895 31.4665C16.0596 31.5282 15.9428 31.5413 15.322 31.5413H14.6119L14.4269 31.4258C14.311 31.3515 14.2168 31.2478 14.1539 31.1253L14.0647 30.9402L14.0712 22.7093L14.0857 14.4785L14.2156 14.3144C14.2986 14.2136 14.4007 14.1301 14.5161 14.069C14.6881 13.9863 14.7563 13.9732 15.4664 13.9732C16.2998 13.9732 16.4376 14.006 16.6568 14.2462C18.3597 16.7792 20.048 19.322 21.7215 21.8746C24.4501 26.0117 28.1749 31.6568 30.0058 34.4263L33.3355 39.4651L33.4995 39.3561C35.0998 38.2927 36.5499 37.0191 37.811 35.5695C40.4563 32.5416 42.1728 28.8153 42.755 24.8369C42.9243 23.6819 42.9453 23.3394 42.9453 21.7748C42.9453 20.209 42.9243 19.8743 42.755 18.7193C41.6119 10.8297 35.9998 4.20667 28.3928 1.75094C26.9711 1.30064 25.5078 0.994157 24.0249 0.836105C23.6272 0.795417 20.9131 0.746853 20.5718 0.782292L20.5705 0.779667ZM29.1632 13.481C29.2608 13.5289 29.3479 13.5959 29.4194 13.6779C29.4908 13.76 29.5451 13.8554 29.5792 13.9587C29.6147 14.069 29.6212 16.3515 29.6147 21.4926L29.6002 28.8743L28.3022 26.8792L26.9963 24.8829V19.5238C26.9963 16.0496 27.0107 14.1018 27.0291 14.006C27.0934 13.7863 27.2407 13.6003 27.4399 13.4875C27.6027 13.4048 27.6657 13.3983 28.3153 13.3983C28.923 13.3983 29.0267 13.4048 29.1632 13.481Z" fill="url(#paint0_linear_1_18)"/>
<defs>
<linearGradient id="paint0_linear_1_18" x1="21.9453" y1="0.77002" x2="21.9453" y2="42.77" gradientUnits="userSpaceOnUse">
<stop stop-color="#161513"/>
<stop offset="1" stop-color="#161513" stop-opacity="0.18"/>
</linearGradient>
</defs>
</svg>
