<svg width="117" height="36" viewBox="0 0 117 36" fill="none" xmlns="http://www.w3.org/2000/svg">
<path d="M15.2211 35.7245C15.2211 35.7245 0 31.1757 0 8.85011V0.275391H30.4941V8.85011C30.4421 30.3914 15.2211 35.7245 15.2211 35.7245Z" fill="#51AF3D"/>
<path d="M24.0004 8.90241H11.7404V16.0131H24.0004V18.1568C24.0004 21.7645 23.0134 24.6401 17.5587 24.6924H11.7404V34.0514C13.7665 35.3062 15.2211 35.7245 15.2211 35.7245C15.2211 35.7245 30.4421 30.3915 30.4421 8.85014V2.4191C30.4421 5.97447 28.8836 8.85013 24.0004 8.90241Z" fill="#0F5431"/>
<path d="M38.2402 18.6393V6.56152H45.617V7.45037C45.617 8.33921 44.8897 9.07119 44.0066 9.07119H41.2013V11.6332H44.8897V12.4697C44.8897 13.4108 44.1624 14.1428 43.2273 14.1428H41.2533V18.6393H38.2402Z" fill="white"/>
<path d="M50.1884 12.0514H51.4872C51.9547 12.0514 52.3183 11.9468 52.63 11.6854C52.8898 11.424 53.0456 11.058 53.0456 10.5875C53.0456 9.90776 52.7859 9.48948 52.3184 9.28034C52.0586 9.17577 51.695 9.12347 51.2274 9.12347H50.2404V12.0514H50.1884ZM47.2793 18.6393V6.56152H51.4872C52.5261 6.56152 53.3054 6.6661 53.8249 6.87524C54.5002 7.13666 55.0716 7.60722 55.4353 8.18235C55.8509 8.80977 56.0067 9.54175 56.0067 10.3783C56.0067 11.058 55.8509 11.6854 55.5392 12.3128C55.2275 12.9403 54.7599 13.3585 54.1885 13.6723V13.7245C54.2924 13.8814 54.4483 14.0905 54.6561 14.4565L56.9938 18.6916H53.721L51.5911 14.6134H50.1884V18.6916H47.2793V18.6393Z" fill="white"/>
<path d="M58.3447 18.6393V6.56152H65.8773V9.12347H61.2539V11.3194H64.9423V13.8291H61.2539V16.1296H66.0851V18.6393H58.3447Z" fill="white"/>
<path d="M67.9551 18.6393V6.56152H75.4877V9.12347H70.9162V11.3194H74.6046V13.8291H70.9162V16.1296H75.7474V18.6393H67.9551Z" fill="white"/>
<path d="M80.5783 16.1296H81.7731C82.8121 16.1296 83.5913 15.8159 84.1628 15.2408C84.7342 14.6134 85.0459 13.7768 85.0459 12.6266C85.0459 11.4763 84.7342 10.6397 84.1628 10.0646C83.5913 9.48948 82.7601 9.17576 81.7731 9.17576H80.5783V16.1296ZM77.6172 18.6393V6.56152H81.877C83.7991 6.56152 85.3056 7.08437 86.3966 8.18235C87.4875 9.22805 88.0589 10.7443 88.0589 12.6266C88.0589 14.5088 87.4875 16.0251 86.3966 17.0708C85.3056 18.1687 83.7472 18.6916 81.877 18.6916H77.6172V18.6393Z" fill="white"/>
<path d="M92.3714 12.5219C92.3714 13.5676 92.6831 14.4041 93.3065 15.1361C93.9299 15.8158 94.7091 16.1818 95.6442 16.1818C96.5793 16.1818 97.3585 15.8158 97.9819 15.1361C98.6053 14.4564 98.917 13.5676 98.917 12.5219C98.917 11.5285 98.6053 10.6919 97.9819 10.0645C97.3585 9.38481 96.5793 9.07109 95.6442 9.07109C94.7091 9.07109 93.9299 9.38481 93.3065 10.0645C92.6831 10.7442 92.3714 11.5285 92.3714 12.5219ZM89.3584 12.5219C89.3584 10.7442 89.9298 9.28024 91.1247 8.12997C92.3195 6.92742 93.826 6.35229 95.6442 6.35229C97.4624 6.35229 98.969 6.92742 100.164 8.12997C101.359 9.33252 101.93 10.7965 101.93 12.5219C101.93 14.2996 101.359 15.8158 100.164 17.0184C98.969 18.2209 97.4624 18.8484 95.6442 18.8484C93.826 18.8484 92.3195 18.2209 91.1247 17.0184C89.9298 15.8681 89.3584 14.3519 89.3584 12.5219Z" fill="white"/>
<path d="M103.332 18.6393L104.319 6.56152H107.488L109.254 11.6854L109.878 13.6723H109.93C110.137 12.8357 110.345 12.2083 110.553 11.6854L112.319 6.56152H115.488L116.475 18.6393H113.514L113.15 13.2017C113.15 12.9403 113.098 12.6266 113.098 12.3128C113.098 11.9991 113.098 11.6854 113.098 11.4763V11.1626H113.046C112.787 11.9991 112.579 12.6788 112.371 13.2017L111.124 16.7048H108.579L107.332 13.2017L106.657 11.1626H106.605C106.657 11.8946 106.657 12.5743 106.605 13.2017L106.241 18.6393H103.332Z" fill="white"/>
<path d="M38.4482 22.7175H40.5262V31.3445H38.4482V22.7175Z" fill="white"/>
<path d="M42.3438 22.7175H44.4737L46.8633 26.7435C47.175 27.3186 47.5906 28.2074 47.5906 28.2074C47.5906 28.2074 47.4867 27.2663 47.4867 26.7435V22.7175H49.5647V31.3445H47.4348L45.0451 27.3186C44.7334 26.7435 44.3178 25.8546 44.3178 25.8546C44.3178 25.8546 44.4217 26.7958 44.4217 27.3186V31.3445H42.3438V22.7175Z" fill="white"/>
<path d="M51.9025 28.6781C52.37 29.0963 53.2012 29.5669 53.9804 29.5669C54.5519 29.5669 54.8636 29.3055 54.8636 28.9395C54.8636 27.7369 51.0713 27.8938 51.0713 25.2273C51.0713 23.6587 52.37 22.613 54.1882 22.613C55.1233 22.613 56.1103 22.9267 56.8896 23.6064L56.0064 25.3318C55.5389 24.9136 54.7597 24.5476 54.1363 24.5476C53.5129 24.5476 53.2012 24.809 53.2012 25.175C53.2012 26.4298 56.9935 26.1161 56.9935 28.8349C56.9935 30.2989 55.9025 31.5014 53.9285 31.5014C52.8375 31.5014 51.6427 31.0832 50.8115 30.2466L51.9025 28.6781Z" fill="white"/>
<path d="M58.1885 22.7175H60.2664V28.1551C60.2664 29.044 60.8379 29.5668 61.773 29.5668C62.6561 29.5668 63.2795 29.0963 63.2795 28.1551V22.7175H65.3574V28.1551C65.3574 30.0897 63.9548 31.4491 61.773 31.4491C59.5911 31.4491 58.1885 30.0897 58.1885 28.1551V22.7175Z" fill="white"/>
<path d="M67.0715 22.7175H70.0326C70.9157 22.7175 71.3313 22.7698 71.6949 22.9267C72.682 23.2927 73.2534 24.1815 73.2534 25.4363C73.2534 26.3775 72.8378 27.3709 71.9547 27.7892C71.9547 27.7892 72.0586 27.946 72.2664 28.312L73.9287 31.3445H71.591L70.0845 28.4166H69.0975V31.3445H67.0195V22.7175H67.0715ZM70.0845 26.6389C70.7599 26.6389 71.1754 26.2729 71.1754 25.5932C71.1754 25.1749 71.0716 24.8089 70.656 24.6521C70.4482 24.5475 70.1884 24.5475 69.8767 24.5475H69.1494V26.6389H70.0845Z" fill="white"/>
<path d="M76.8908 22.7175H79.0726L81.9818 31.3445H79.7999L79.2804 29.5145H76.631L76.1116 31.3445H73.9297L76.8908 22.7175ZM78.8648 27.8414L78.3973 26.1683C78.2415 25.6455 78.0337 24.7044 78.0337 24.7044C78.0337 24.7044 77.8259 25.6455 77.67 26.1683L77.2025 27.8414H78.8648Z" fill="white"/>
<path d="M82.916 22.7175H85.0459L87.4356 26.7435C87.7473 27.3186 88.1629 28.2074 88.1629 28.2074C88.1629 28.2074 88.059 27.2663 88.059 26.7435V22.7175H90.1369V31.3445H88.007L85.6174 27.3186C85.3057 26.7435 84.8901 25.8546 84.8901 25.8546C84.8901 25.8546 84.994 26.7958 84.994 27.3186V31.3445H82.916V22.7175Z" fill="white"/>
<path d="M95.9558 22.613C97.0987 22.613 98.3455 22.979 99.1766 23.8156L98.1896 25.3841C97.6182 24.9136 96.787 24.4953 96.0597 24.4953C94.3454 24.4953 93.6181 25.6978 93.6181 26.9527C93.6181 28.2075 94.3973 29.5669 96.0597 29.5669C96.8909 29.5669 97.774 29.0963 98.3455 28.5212L99.4364 30.0898C98.6571 30.874 97.5662 31.5537 96.0077 31.5537C93.2545 31.5537 91.5401 29.6192 91.5401 27.0572C91.4882 24.4953 93.3064 22.613 95.9558 22.613Z" fill="white"/>
<path d="M100.475 22.7175H105.826V24.5475H102.553V26.116H105.15V27.946H102.553V29.5668H105.981V31.3968H100.423V22.7175H100.475Z" fill="white"/>
</svg>
